<?xml version="1.0" encoding="iso-8859-1"?>
<!-- Generator: Adobe Illustrator 19.0.0, SVG Export Plug-In . SVG Version: 6.00 Build 0)  -->
<svg version="1.1" id="Capa_1" xmlns="http://www.w3.org/2000/svg" xmlns:xlink="http://www.w3.org/1999/xlink" x="0px" y="0px"
	 viewBox="0 0 512 512" style="enable-background:new 0 0 512 512;" xml:space="preserve">
<g>
	<rect x="75" y="195" style="fill:#555A66;" width="60" height="91"/>
	<rect x="75" y="406" style="fill:#555A66;" width="60" height="91"/>
</g>
<g>
	<rect x="377" y="406" style="fill:#3C3A41;" width="60" height="91"/>
	<rect x="377" y="195" style="fill:#3C3A41;" width="60" height="91"/>
</g>
<path style="fill:#707789;" d="M165,512H45c-8.291,0-15-6.709-15-15s6.709-15,15-15h120c8.291,0,15,6.709,15,15S173.291,512,165,512
	z"/>
<path style="fill:#555A66;" d="M467,512H347c-8.291,0-15-6.709-15-15s6.709-15,15-15h120c8.291,0,15,6.709,15,15
	S475.291,512,467,512z"/>
<g>
	<path style="fill:#FCBF29;" d="M373.1,177.9l10.201,32.1H497c8.401,0,15-6.601,15-15V81.299c0,0-18.655-3.924-35.149-7.416
		L373.1,177.9z"/>
	<path style="fill:#FCBF29;" d="M373.1,388.9l10.201,32.1H497c8.401,0,15-6.601,15-15V292.299c0,0-18.655-3.924-35.149-7.416
		L373.1,388.9z"/>
</g>
<path style="fill:#FF5842;" d="M105,90c-24.814,0-45-20.186-45-45S80.186,0,105,0s45,20.186,45,45S129.814,90,105,90z"/>
<path style="fill:#FD3018;" d="M407,90c-24.814,0-45-20.186-45-45s20.186-45,45-45s45,20.186,45,45S431.814,90,407,90z"/>
<polygon style="fill:#FEDB41;" points="413.301,60 262.301,210 141.301,210 131.1,177.599 233.2,76.5 256,70.199 292.301,60 "/>
<path style="fill:#555A66;" d="M512,75.3v5.999L383.301,210h-121l-1.501-41.1L349.701,81l63.6-21H497c6,0,11.4,3.6,13.801,9.3
	C511.7,71.1,512,73.2,512,75.3z"/>
<polygon style="fill:#FEDB41;" points="413.301,271 262.301,421 141.301,421 131.1,388.599 233.2,287.5 256,281.199 292.301,271 "/>
<path style="fill:#555A66;" d="M512,286.3v5.999L383.301,421h-121l-1.501-41.1l88.902-87.9l63.6-21H497c6,0,11.4,3.6,13.801,9.3
	C511.7,282.1,512,284.2,512,286.3z"/>
<g>
	<polygon style="fill:#FCBF29;" points="292.301,271 413.301,271 262.301,421 256,421 256,281.199 	"/>
	<polygon style="fill:#FCBF29;" points="262.301,210 256,210 256,70.199 292.301,60 413.301,60 	"/>
</g>
<polygon style="fill:#707789;" points="292.301,60 256,96.299 141.301,210 21.301,210 15.601,173.099 106.199,82.5 171.301,60 "/>
<polygon style="fill:#555A66;" points="292.301,60 256,96.299 256,60 "/>
<polygon style="fill:#707789;" points="292.301,271 256,307.299 141.301,421 21.301,421 15.601,384.099 106.199,293.5 171.301,271 
	"/>
<polygon points="256,271 292.301,271 256,307.299 "/>
<polygon style="fill:#555A66;" points="256,271 292.301,271 256,307.299 "/>
<g>
	<path style="fill:#FEDB41;" d="M15,210c-1.934,0-3.882-0.366-5.742-1.143C3.647,206.543,0,201.064,0,195V75c0-8.291,6.709-15,15-15
		h156.211l-150,150H15z"/>
	<path style="fill:#FEDB41;" d="M15,421c-1.934,0-3.882-0.366-5.742-1.143C3.647,417.543,0,412.064,0,406V286
		c0-8.291,6.709-15,15-15h156.211l-150,150H15z"/>
</g>
<g>
</g>
<g>
</g>
<g>
</g>
<g>
</g>
<g>
</g>
<g>
</g>
<g>
</g>
<g>
</g>
<g>
</g>
<g>
</g>
<g>
</g>
<g>
</g>
<g>
</g>
<g>
</g>
<g>
</g>
</svg>
