<?xml version="1.0" encoding="UTF-8" standalone="no"?>
<!-- Generator: Adobe Illustrator 19.0.0, SVG Export Plug-In . SVG Version: 6.00 Build 0)  -->

<svg
   xmlns:dc="http://purl.org/dc/elements/1.1/"
   xmlns:cc="http://creativecommons.org/ns#"
   xmlns:rdf="http://www.w3.org/1999/02/22-rdf-syntax-ns#"
   xmlns:svg="http://www.w3.org/2000/svg"
   xmlns="http://www.w3.org/2000/svg"
   xmlns:sodipodi="http://sodipodi.sourceforge.net/DTD/sodipodi-0.dtd"
   xmlns:inkscape="http://www.inkscape.org/namespaces/inkscape"
   version="1.1"
   id="Layer_1"
   x="0px"
   y="0px"
   viewBox="0 0 387.23 387.23"
   style="enable-background:new 0 0 387.23 387.23;"
   xml:space="preserve"
   inkscape:version="0.91 r13725"
   sodipodi:docname="Folders.svg"><metadata
     id="metadata64"><rdf:RDF><cc:Work
         rdf:about=""><dc:format>image/svg+xml</dc:format><dc:type
           rdf:resource="http://purl.org/dc/dcmitype/StillImage" /></cc:Work></rdf:RDF></metadata><defs
     id="defs62" /><sodipodi:namedview
     pagecolor="#ffffff"
     bordercolor="#666666"
     borderopacity="1"
     objecttolerance="10"
     gridtolerance="10"
     guidetolerance="10"
     inkscape:pageopacity="0"
     inkscape:pageshadow="2"
     inkscape:window-width="837"
     inkscape:window-height="539"
     id="namedview60"
     showgrid="false"
     inkscape:zoom="0.60945689"
     inkscape:cx="19.689662"
     inkscape:cy="193.61501"
     inkscape:window-x="0"
     inkscape:window-y="0"
     inkscape:window-maximized="0"
     inkscape:current-layer="Layer_1" /><g
     id="XMLID_9_"
     transform="matrix(1,0,0,0.89798103,0,39.442065)"><g
       id="g4"><path
         style="fill:#f4581b"
         d="m 387.23,0.615 0,386 -108.89,0 0,-386 c 0,0 108.89,0 108.89,0 z m -27,159.57 0,-132.57 -54.89,0 0,132.57 54.89,0 z m 0,129.25 c 0,-15.15 -12.28,-27.44 -27.44,-27.44 -15.16,0 -27.45,12.29 -27.45,27.44 0,15.16 12.29,27.45 27.45,27.45 15.16,0 27.44,-12.29 27.44,-27.45 z"
         id="path6"
         inkscape:connector-curvature="0" /><rect
         x="305.34"
         y="27.615"
         style="fill:#f2f2f2"
         width="54.889999"
         height="132.57001"
         id="rect8" /><path
         style="fill:#666666"
         d="m 332.79,261.995 c 15.16,0 27.44,12.29 27.44,27.44 0,15.16 -12.28,27.45 -27.44,27.45 -15.16,0 -27.45,-12.29 -27.45,-27.45 0,-15.15 12.29,-27.44 27.45,-27.44 z"
         id="path10"
         inkscape:connector-curvature="0" /><path
         style="fill:#008db3"
         d="m 248.06,0.615 0,386 -108.89,0 0,-386 c 0,0 108.89,0 108.89,0 z m -27,159.57 0,-132.57 -54.89,0 0,132.57 54.89,0 z m 0,129.25 c 0,-15.15 -12.28,-27.44 -27.44,-27.44 -15.16,0 -27.45,12.29 -27.45,27.44 0,15.16 12.29,27.45 27.45,27.45 15.16,0 27.44,-12.29 27.44,-27.45 z"
         id="path12"
         inkscape:connector-curvature="0" /><rect
         x="166.17"
         y="27.615"
         style="fill:#f2f2f2"
         width="54.889999"
         height="132.57001"
         id="rect14" /><path
         style="fill:#666666"
         d="m 193.62,261.995 c 15.16,0 27.44,12.29 27.44,27.44 0,15.16 -12.28,27.45 -27.44,27.45 -15.16,0 -27.45,-12.29 -27.45,-27.45 0,-15.15 12.29,-27.44 27.45,-27.44 z"
         id="path16"
         inkscape:connector-curvature="0" /><path
         style="fill:#f7cf52"
         d="m 108.89,0.615 0,386 -108.89,0 0,-386 c 0,0 108.89,0 108.89,0 z m -27,159.57 0,-132.57 -54.89,0 0,132.57 54.89,0 z m 0,129.25 c 0,-15.15 -12.29,-27.44 -27.44,-27.44 -15.16,0 -27.45,12.29 -27.45,27.44 0,15.16 12.29,27.45 27.45,27.45 15.15,0 27.44,-12.29 27.44,-27.45 z"
         id="path18"
         inkscape:connector-curvature="0" /><rect
         x="27"
         y="27.615"
         style="fill:#f2f2f2"
         width="54.889999"
         height="132.57001"
         id="rect20" /><path
         style="fill:#666666"
         d="m 54.45,261.995 c 15.15,0 27.44,12.29 27.44,27.44 0,15.16 -12.29,27.45 -27.44,27.45 -15.16,0 -27.45,-12.29 -27.45,-27.45 0,-15.15 12.29,-27.44 27.45,-27.44 z"
         id="path22"
         inkscape:connector-curvature="0" /></g></g><rect
     x="46.946999"
     y="79.959862"
     style="fill:#808080"
     width="15"
     height="87.602539"
     id="rect24" /><rect
     x="186.117"
     y="79.959862"
     style="fill:#808080"
     width="15"
     height="87.602539"
     id="rect26" /><rect
     x="325.28699"
     y="79.959862"
     style="fill:#808080"
     width="15"
     height="87.602539"
     id="rect28" /><g
     id="g30"
     transform="matrix(1,0,0,0.89798103,0,39.442065)" /><g
     id="g32"
     transform="matrix(1,0,0,0.89798103,0,39.442065)" /><g
     id="g34"
     transform="matrix(1,0,0,0.89798103,0,39.442065)" /><g
     id="g36"
     transform="matrix(1,0,0,0.89798103,0,39.442065)" /><g
     id="g38"
     transform="matrix(1,0,0,0.89798103,0,39.442065)" /><g
     id="g40"
     transform="matrix(1,0,0,0.89798103,0,39.442065)" /><g
     id="g42"
     transform="matrix(1,0,0,0.89798103,0,39.442065)" /><g
     id="g44"
     transform="matrix(1,0,0,0.89798103,0,39.442065)" /><g
     id="g46"
     transform="matrix(1,0,0,0.89798103,0,39.442065)" /><g
     id="g48"
     transform="matrix(1,0,0,0.89798103,0,39.442065)" /><g
     id="g50"
     transform="matrix(1,0,0,0.89798103,0,39.442065)" /><g
     id="g52"
     transform="matrix(1,0,0,0.89798103,0,39.442065)" /><g
     id="g54"
     transform="matrix(1,0,0,0.89798103,0,39.442065)" /><g
     id="g56"
     transform="matrix(1,0,0,0.89798103,0,39.442065)" /><g
     id="g58"
     transform="matrix(1,0,0,0.89798103,0,39.442065)" /></svg>