<?xml version="1.0" encoding="iso-8859-1"?>
<!-- Generator: Adobe Illustrator 19.0.0, SVG Export Plug-In . SVG Version: 6.00 Build 0)  -->
<svg version="1.1" id="Layer_1" xmlns="http://www.w3.org/2000/svg" xmlns:xlink="http://www.w3.org/1999/xlink" x="0px" y="0px"
	 viewBox="0 0 387.23 387.23" style="enable-background:new 0 0 387.23 387.23;" xml:space="preserve">
<g id="XMLID_9_">
	<g>
		<path style="fill:#F4581B;" d="M387.23,0.615v386H278.34v-386C278.34,0.615,387.23,0.615,387.23,0.615z M360.23,160.185V27.615
			h-54.89v132.57H360.23z M360.23,289.435c0-15.15-12.28-27.44-27.44-27.44s-27.45,12.29-27.45,27.44
			c0,15.16,12.29,27.45,27.45,27.45S360.23,304.595,360.23,289.435z"/>
		<rect x="305.34" y="27.615" style="fill:#F2F2F2;" width="54.89" height="132.57"/>
		<path style="fill:#666666;" d="M332.79,261.995c15.16,0,27.44,12.29,27.44,27.44c0,15.16-12.28,27.45-27.44,27.45
			s-27.45-12.29-27.45-27.45C305.34,274.285,317.63,261.995,332.79,261.995z"/>
		<path style="fill:#008DB3;" d="M248.06,0.615v386H139.17v-386C139.17,0.615,248.06,0.615,248.06,0.615z M221.06,160.185V27.615
			h-54.89v132.57H221.06z M221.06,289.435c0-15.15-12.28-27.44-27.44-27.44s-27.45,12.29-27.45,27.44
			c0,15.16,12.29,27.45,27.45,27.45S221.06,304.595,221.06,289.435z"/>
		<rect x="166.17" y="27.615" style="fill:#F2F2F2;" width="54.89" height="132.57"/>
		<path style="fill:#666666;" d="M193.62,261.995c15.16,0,27.44,12.29,27.44,27.44c0,15.16-12.28,27.45-27.44,27.45
			s-27.45-12.29-27.45-27.45C166.17,274.285,178.46,261.995,193.62,261.995z"/>
		<path style="fill:#F7CF52;" d="M108.89,0.615v386H0v-386C0,0.615,108.89,0.615,108.89,0.615z M81.89,160.185V27.615H27v132.57
			H81.89z M81.89,289.435c0-15.15-12.29-27.44-27.44-27.44c-15.16,0-27.45,12.29-27.45,27.44c0,15.16,12.29,27.45,27.45,27.45
			C69.6,316.885,81.89,304.595,81.89,289.435z"/>
		<rect x="27" y="27.615" style="fill:#F2F2F2;" width="54.89" height="132.57"/>
		<path style="fill:#666666;" d="M54.45,261.995c15.15,0,27.44,12.29,27.44,27.44c0,15.16-12.29,27.45-27.44,27.45
			c-15.16,0-27.45-12.29-27.45-27.45C27,274.285,39.29,261.995,54.45,261.995z"/>
	</g>
</g>
<rect x="46.947" y="45.121" style="fill:#808080;" width="15" height="97.555"/>
<rect x="186.117" y="45.121" style="fill:#808080;" width="15" height="97.555"/>
<rect x="325.287" y="45.121" style="fill:#808080;" width="15" height="97.555"/>
<g>
</g>
<g>
</g>
<g>
</g>
<g>
</g>
<g>
</g>
<g>
</g>
<g>
</g>
<g>
</g>
<g>
</g>
<g>
</g>
<g>
</g>
<g>
</g>
<g>
</g>
<g>
</g>
<g>
</g>
</svg>
