<?xml version="1.0" encoding="iso-8859-1"?>
<!-- Generator: Adobe Illustrator 19.0.0, SVG Export Plug-In . SVG Version: 6.00 Build 0)  -->
<svg xmlns="http://www.w3.org/2000/svg" xmlns:xlink="http://www.w3.org/1999/xlink" version="1.1" id="Capa_1" x="0px" y="0px" viewBox="0 0 512 512" style="enable-background:new 0 0 512 512;" xml:space="preserve" width="512px" height="512px">
<g>
	<g>
		<path d="M184.353,312.676c-7.162,4.118-16.235,1.706-20.456-5.426c-1.073-1.823-1.942-3.411-2.544-4.868    c-7.06-14.367-10.765-30.294-10.765-46.382c0-12.838,2.367-25.588,6.912-37.53l-25.588-17.059    c-7.515,17.103-11.442,35.705-11.442,54.588c0,21.441,5.059,42.5,14.691,61.441c3.25,1.397,6.03,3.911,7.676,7.353    c3.588,7.5,0.412,16.485-7.089,20.088l-1.736,0.823l50.868,24.324l2.706-59.338C187.486,310.755,184.541,312.577,184.353,312.676z    " fill="#FFFFFF"/>
	</g>
</g>
<g>
	<g>
		<path d="M391.177,257.881l-55.265,26.604l6.295,3.794c7.029,4.25,9.368,13.323,5.265,20.427c-1.603,2.765-3.309,5.426-5.147,8.029    l-0.015,0.029c-16.853,23.823-42.765,39.456-71.25,43.573v30.339c42.367-4.765,80.603-29.456,102.176-66.824    c4.162-7.191,13.353-9.662,20.559-5.515l1.515,0.867L391.177,257.881z" fill="#FFFFFF"/>
	</g>
</g>
<g>
	<g>
		<path d="M256,120.471c-8.323,0-15.059-6.735-15.059-15.059v-1.986l-48.147,32.103l48.147,32.103v-1.986    c0-8.324,6.735-15.059,15.059-15.059c29.794,0,58.103,12.721,77.986,34.559l28.103-13.544    C336.5,139.323,297.927,120.471,256,120.471z" fill="#FFFFFF"/>
	</g>
</g>
<g>
	<g>
		<path d="M256,0C114.839,0,0,114.839,0,256s114.839,256,256,256s256-114.839,256-256S397.161,0,256,0z M157.294,123l90.353-60.235    c10.041-6.673,23.411,0.57,23.411,12.529v15.72c52.118,4.647,98.588,33.309,126.323,78.632c4.654,7.563,1.721,17.565-6.309,21.441    l-54.779,26.368c-6.607,3.163-14.566,1.14-18.808-4.868c-11.191-15.78-27.897-26.53-46.426-30.353v13.53    c0,12.024-13.453,19.179-23.411,12.529l-90.353-60.235C148.362,142.103,148.362,128.956,157.294,123z M218.97,283.676    l-5.03,110.426c-0.235,5.044-2.971,9.633-7.309,12.221c-4.42,2.662-9.793,2.802-14.236,0.677l-99.765-47.691    c-11.343-5.432-11.43-21.687,0-27.176l13.132-6.295C95.647,304.074,90.353,280.221,90.353,256    c0-29.647,7.927-58.735,22.911-84.133c2.103-3.559,5.588-6.103,9.618-7.014c4-0.898,8.235-0.147,11.706,2.147l50.279,33.529    c6.485,4.324,8.589,12.867,4.882,19.706c-5.911,10.927-9.043,23.294-9.043,35.765c0,7.353,1.088,14.661,3.176,21.648    c3.574-2.221,7.603-4.691,12.177-7.5C206.372,263.845,219.51,271.651,218.97,283.676z M404.706,359.397l-13.514-7.794    c-30.78,43.545-81.31,70.045-135.192,70.045c-8.323,0-15.059-6.735-15.059-15.059v-60.235c0-8.324,6.735-15.059,15.059-15.059    c21.809,0,42.485-9.456,56.75-25.618l-16.22-9.794c-4.736-2.867-7.529-8.089-7.264-13.603c0.265-5.53,3.53-10.471,8.514-12.867    l100.397-48.324c9.535-4.596,20.836,1.911,21.559,12.559l7.529,111.691C428.062,357.363,415.133,365.341,404.706,359.397z" fill="#FFFFFF"/>
	</g>
</g>
<g>
</g>
<g>
</g>
<g>
</g>
<g>
</g>
<g>
</g>
<g>
</g>
<g>
</g>
<g>
</g>
<g>
</g>
<g>
</g>
<g>
</g>
<g>
</g>
<g>
</g>
<g>
</g>
<g>
</g>
</svg>
