<?xml version="1.0" encoding="iso-8859-1"?>
<!-- Generator: Adobe Illustrator 19.0.0, SVG Export Plug-In . SVG Version: 6.00 Build 0)  -->
<svg version="1.1" id="Capa_1" xmlns="http://www.w3.org/2000/svg" xmlns:xlink="http://www.w3.org/1999/xlink" x="0px" y="0px"
	 viewBox="0 0 512 512" style="enable-background:new 0 0 512 512;" xml:space="preserve">
<path style="fill:#E4EAF8;" d="M347.211,24.682H30.439c-3.363,0-6.09,2.727-6.09,6.09v186.646v89.218v174.592
	c0,3.363,2.726,6.09,6.09,6.09h316.772c3.363,0,6.09-2.726,6.09-6.09V306.636v-89.218V30.772
	C353.301,27.409,350.574,24.682,347.211,24.682z"/>
<path style="fill:#D8DCE5;" d="M44.648,481.228V306.636v-89.218V30.772c0-3.363,2.726-6.09,6.09-6.09H30.439
	c-3.363,0-6.09,2.727-6.09,6.09v186.646v89.218v174.592c0,3.363,2.726,6.09,6.09,6.09h20.299
	C47.374,487.318,44.648,484.591,44.648,481.228z"/>
<g>
	<path style="fill:#FF5050;" d="M42.374,98.886H7.612C3.408,98.886,0,95.478,0,91.274s3.408-7.612,7.612-7.612h34.762
		c4.204,0,7.612,3.408,7.612,7.612C49.986,95.478,46.578,98.886,42.374,98.886z"/>
	<path style="fill:#FF5050;" d="M42.374,153.794H7.612c-4.204,0-7.612-3.408-7.612-7.612s3.408-7.612,7.612-7.612h34.762
		c4.204,0,7.612,3.408,7.612,7.612S46.578,153.794,42.374,153.794z"/>
	<path style="fill:#FF5050;" d="M42.374,208.703H7.612c-4.204,0-7.612-3.408-7.612-7.612s3.408-7.612,7.612-7.612h34.762
		c4.204,0,7.612,3.408,7.612,7.612S46.578,208.703,42.374,208.703z"/>
	<path style="fill:#FF5050;" d="M42.374,263.612H7.612C3.408,263.612,0,260.204,0,256c0-4.204,3.408-7.612,7.612-7.612h34.762
		c4.204,0,7.612,3.408,7.612,7.612C49.986,260.204,46.578,263.612,42.374,263.612z"/>
	<path style="fill:#FF5050;" d="M42.374,318.521H7.612c-4.204,0-7.612-3.408-7.612-7.612s3.408-7.612,7.612-7.612h34.762
		c4.204,0,7.612,3.408,7.612,7.612S46.578,318.521,42.374,318.521z"/>
	<path style="fill:#FF5050;" d="M42.374,373.429H7.612c-4.204,0-7.612-3.408-7.612-7.612s3.408-7.612,7.612-7.612h34.762
		c4.204,0,7.612,3.408,7.612,7.612S46.578,373.429,42.374,373.429z"/>
	<path style="fill:#FF5050;" d="M42.374,428.338H7.612c-4.204,0-7.612-3.408-7.612-7.612s3.408-7.612,7.612-7.612h34.762
		c4.204,0,7.612,3.408,7.612,7.612S46.578,428.338,42.374,428.338z"/>
</g>
<g>
	<path style="fill:#C3C8D1;" d="M251.787,153.794H151.184c-4.204,0-7.612-3.408-7.612-7.612s3.408-7.612,7.612-7.612h100.602
		c4.204,0,7.612,3.408,7.612,7.612C259.399,150.386,255.991,153.794,251.787,153.794z"/>
	<path style="fill:#C3C8D1;" d="M298.475,208.703h-193.98c-4.204,0-7.612-3.408-7.612-7.612s3.408-7.612,7.612-7.612h193.98
		c4.204,0,7.612,3.408,7.612,7.612S302.679,208.703,298.475,208.703z"/>
	<path style="fill:#C3C8D1;" d="M232.716,263.612H104.495c-4.204,0-7.612-3.408-7.612-7.612c0-4.204,3.408-7.612,7.612-7.612
		h128.221c4.204,0,7.612,3.408,7.612,7.612C240.328,260.204,236.92,263.612,232.716,263.612z"/>
	<path style="fill:#C3C8D1;" d="M190.327,318.521h-85.832c-4.204,0-7.612-3.408-7.612-7.612s3.408-7.612,7.612-7.612h85.832
		c4.204,0,7.612,3.408,7.612,7.612S194.531,318.521,190.327,318.521z"/>
	<path style="fill:#C3C8D1;" d="M160.286,373.429h-55.791c-4.204,0-7.612-3.408-7.612-7.612s3.408-7.612,7.612-7.612h55.791
		c4.204,0,7.612,3.408,7.612,7.612S164.49,373.429,160.286,373.429z"/>
	<path style="fill:#C3C8D1;" d="M160.286,428.338h-55.791c-4.204,0-7.612-3.408-7.612-7.612s3.408-7.612,7.612-7.612h55.791
		c4.204,0,7.612,3.408,7.612,7.612S164.49,428.338,160.286,428.338z"/>
</g>
<rect x="213.54" y="228.621" transform="matrix(-0.7071 0.7071 -0.7071 -0.7071 790.2672 192.9912)" style="fill:#FFC850;" width="283.247" height="63.089"/>
<rect x="329.557" y="104.221" transform="matrix(-0.7071 -0.7071 0.7071 -0.7071 408.0475 660.708)" style="fill:#E1A546;" width="22.608" height="283.247"/>
<path style="fill:#F0A479;" d="M277.325,382.612l-73.259,37.377c-5.601,2.858-11.585-3.126-8.727-8.727l37.377-73.259
	L277.325,382.612z"/>
<path style="fill:#EA976E;" d="M247.824,353.11l-15.107-15.107l-37.377,73.259c-2.858,5.601,3.126,11.585,8.727,8.727l13.026-6.646
	L247.824,353.11z"/>
<path style="fill:#707487;" d="M487.624,108.585l19.118,19.118c7.01,7.01,7.01,18.481,0,25.491l-31.156,31.156l-44.609-44.609
	l31.156-31.156C469.144,101.575,480.614,101.575,487.624,108.585z"/>
<path style="fill:#676A77;" d="M481.541,121.193c3.435-3.435,7.656-5.618,12.096-6.595l-6.013-6.013
	c-7.01-7.01-18.481-7.01-25.491,0l-31.156,31.156l16.007,16.008L481.541,121.193z"/>
<path style="fill:#707487;" d="M245.443,398.878l-41.376,21.11c-5.601,2.858-11.585-3.126-8.727-8.727l21.11-41.376L245.443,398.878
	z"/>
<path style="fill:#676A77;" d="M214.739,414.543l2.353-1.201l14.464-28.35l-15.107-15.107l-7.49,14.681l-13.62,26.695
	c-0.714,1.4-0.876,2.825-0.63,4.129c0.74,3.912,5.156,6.742,9.357,4.599L214.739,414.543z"/>
<g>
</g>
<g>
</g>
<g>
</g>
<g>
</g>
<g>
</g>
<g>
</g>
<g>
</g>
<g>
</g>
<g>
</g>
<g>
</g>
<g>
</g>
<g>
</g>
<g>
</g>
<g>
</g>
<g>
</g>
</svg>
